A Knight Tale 2001 BRRip H264 AAC-Rx(Phoenix-RG).mp4
      Format : MPEG-4
      Format profile : Base Media
      Codec ID : isom
      File size : 1.96 GiB
      Duration : 2h 12mn
      Overall bit rate : 2 124 Kbps
     
      
   Video #1
      Format : AVC
      Format/Info : Advanced Video Codec
      Format profile : High@L4.1
      Format settings, CABAC : Yes
      Format settings, ReFrames : 3 frames
      Codec ID : avc1
      Codec ID/Info : Advanced Video Coding
      Duration : 2h 12mn
      Bit rate mode : Variable
      Bit rate : 1 800 Kbps
      Maximum bit rate : 5 361 Kbps
      Width : 1 280 pixels
      Height : 544 pixels
      Display aspect ratio : 2.35
      Frame rate mode : Constant
      Frame rate : 23.976 fps
      Resolution : 24 bits
      Colorimetry : 4:2:0
      Scan type : Progressive
      Bits/(Pixel*Frame) : 0.108
      Stream size : 1.66 GiB (85%)
      Writing library : x264 core 65
      
   Audio #2
      Format : AAC
      Format/Info : Advanced Audio Codec
      Format version : Version 4
      Format profile : LC
      Format settings, SBR : No
      Codec ID : 40
      Duration : 2h 12mn
      Bit rate mode : Variable
      Bit rate : 320 Kbps
      Maximum bit rate : 436 Kbps
      Channel(s) : 6 channels
      Channel positions : Front: L C R, Rear: L R, LFE
      Sampling rate : 48.0 KHz
      Resolution : 16 bits
      Stream size : 303 MiB (15%)
 

SCREEN:
 
http://img822.imageshack.us/img822/6678/vlcsnap7161.jpg
 
http://img716.imageshack.us/img716/912/vlcsnap820946.jpg
 
http://img210.imageshack.us/img210/5618/vlcsnap821446.jpg
